<?xml version="1.0" standalone="no"?>
<!DOCTYPE svg PUBLIC "-//W3C//DTD SVG 20010904//EN"
 "http://www.w3.org/TR/2001/REC-SVG-20010904/DTD/svg10.dtd">
<svg version="1.0" xmlns="http://www.w3.org/2000/svg"
 width="495.000000pt" height="495.000000pt" viewBox="0 0 495.000000 495.000000"
 preserveAspectRatio="xMidYMid meet">
<metadata>
Created by potrace 1.11, written by Peter Selinger 2001-2013
</metadata>
<g transform="translate(0.000000,495.000000) scale(0.100000,-0.100000)"
fill="#000000" stroke="none">
<path d="M735 3180 l-110 -149 -40 4 c-22 3 -69 10 -105 15 -232 34 -230 34
-230 19 0 -8 11 -92 25 -188 18 -124 23 -176 15 -181 -31 -19 -289 -216 -289
-220 0 -3 67 -54 149 -115 l150 -110 -5 -35 c-3 -19 -7 -48 -9 -65 -5 -41 -17
-124 -22 -155 -13 -83 -16 -120 -8 -120 5 0 36 4 69 10 33 5 83 12 110 16 28
3 58 8 69 10 10 2 41 6 70 9 l51 5 112 -151 112 -151 113 152 113 151 55 -6
c30 -4 61 -8 70 -10 19 -3 84 -13 130 -19 19 -3 55 -8 79 -11 l43 -6 -7 46
c-3 26 -8 54 -10 63 -1 10 -6 42 -10 72 -4 30 -9 62 -10 70 -11 60 -14 117 -8
126 5 6 72 59 151 118 79 59 142 109 140 111 -2 1 -68 51 -148 110 -80 60
-147 110 -149 111 -2 2 4 52 13 111 9 60 18 126 20 148 3 22 8 57 11 79 l7 39
-58 -8 c-32 -4 -65 -8 -74 -10 -16 -3 -88 -14 -130 -20 -14 -2 -45 -6 -70 -9
l-45 -5 -100 135 c-55 74 -107 141 -115 149 -13 12 -29 -5 -125 -135z m268
-194 c144 -49 259 -148 320 -276 44 -93 55 -148 52 -247 -4 -93 -6 -100 -38
-180 -39 -96 -98 -170 -193 -243 -87 -66 -278 -103 -402 -78 -74 16 -185 73
-245 128 -108 98 -164 216 -174 366 -12 182 83 368 242 469 45 29 138 67 190
78 44 10 203 -1 248 -17z"/>
<path d="M765 2899 c-75 -14 -156 -58 -214 -117 -212 -212 -150 -563 122 -687
72 -33 86 -36 182 -37 316 -2 515 335 369 623 -48 96 -170 192 -272 214 -50
10 -142 13 -187 4z"/>
<path d="M2442 3094 c-16 -7 -77 -127 -91 -181 -35 -128 -34 -279 3 -386 14
-43 24 -82 21 -87 -3 -4 -20 -11 -39 -14 -40 -8 -57 -31 -85 -114 -29 -84 -32
-265 -6 -309 19 -32 61 -61 98 -68 12 -3 34 -7 49 -10 78 -17 156 46 289 235
66 94 65 90 23 90 -40 0 -31 8 -202 -175 -40 -43 -75 -75 -79 -72 -8 9 -12 60
-13 162 -1 128 14 181 52 189 13 3 36 7 51 11 36 7 44 29 25 69 -25 52 -69
224 -72 280 -5 104 48 282 91 304 12 6 35 4 71 -6 50 -14 52 -16 52 -48 0 -19
-22 -82 -50 -146 -49 -107 -50 -112 -33 -130 14 -16 26 -19 58 -15 50 7 82 43
115 131 15 39 28 60 32 53 5 -7 5 -100 2 -207 -9 -254 -10 -549 -4 -627 5 -57
7 -63 35 -76 35 -16 57 -15 90 7 22 15 23 20 19 83 -6 86 -10 428 -6 598 4
141 9 145 43 30 12 -38 34 -103 50 -143 16 -40 38 -114 49 -163 11 -50 36
-120 55 -157 19 -37 45 -94 58 -126 29 -78 45 -88 87 -53 l32 27 4 218 c2 119
5 242 8 272 2 30 8 137 11 237 l8 181 -26 26 c-43 43 -114 30 -137 -24 -13
-30 -12 -41 8 -230 11 -106 4 -422 -11 -436 -3 -3 -12 28 -22 68 -28 126 -188
631 -211 666 -20 30 -66 50 -104 44 -30 -4 -32 -9 -33 -63 l0 -27 -32 33 c-20
22 -45 36 -70 41 -22 4 -54 13 -71 20 -33 14 -171 26 -192 18z"/>
<path d="M1704 3018 c3 -18 15 -64 26 -103 18 -64 19 -93 15 -325 -3 -140 -8
-304 -12 -365 -12 -199 -12 -196 26 -222 18 -12 49 -25 68 -29 55 -10 67 9 70
115 1 49 7 109 14 133 6 23 12 57 14 74 3 46 13 59 33 41 10 -8 33 -19 53 -25
59 -16 99 20 174 153 50 89 74 192 80 345 4 108 -13 183 -46 201 -39 20 -107
13 -147 -17 -68 -50 -101 -95 -128 -179 -29 -89 -44 -113 -44 -72 0 45 -21
119 -56 192 -44 93 -65 115 -111 115 -35 0 -35 -1 -29 -32z m423 -76 c7 -4 10
-22 8 -42 -6 -46 -12 -103 -20 -169 -14 -119 -56 -211 -135 -298 l-35 -38 -3
27 c-3 24 6 81 23 158 11 50 24 116 30 160 9 71 84 210 113 210 4 0 12 -4 19
-8z"/>
<path d="M3480 2900 c-138 -73 -147 -266 -15 -347 22 -13 49 -18 100 -18 69 1
99 11 150 50 19 15 19 16 -7 41 l-26 26 -29 -21 c-61 -45 -144 -36 -184 20
-26 38 -29 107 -5 143 37 58 129 70 189 25 l29 -21 26 26 c26 25 26 26 7 41
-68 55 -170 70 -235 35z"/>
<path d="M3803 2913 c-10 -4 -13 -50 -13 -189 l0 -184 90 0 90 0 0 35 0 35
-54 0 -54 0 1 141 c1 77 0 144 -3 148 -7 11 -42 19 -57 14z"/>
<path d="M4033 2912 c-22 -3 -22 -5 -22 -188 l0 -184 37 0 37 0 0 184 c0 199
1 196 -52 188z"/>
<path d="M4203 2911 c-4 -3 -9 -10 -9 -16 -1 -5 -9 -50 -18 -100 -8 -49 -18
-106 -21 -125 -8 -51 -16 -92 -21 -112 -5 -15 1 -18 34 -18 l39 0 13 86 c21
146 22 146 53 52 49 -143 46 -138 81 -138 32 0 33 1 66 105 19 57 37 101 41
97 4 -4 12 -41 19 -82 6 -41 13 -82 15 -90 2 -8 4 -18 4 -22 1 -5 17 -8 37 -8
39 0 39 -1 20 100 -3 14 -14 78 -25 144 -11 65 -23 121 -26 124 -10 10 -56 8
-65 -3 -4 -5 -25 -61 -45 -123 -21 -62 -41 -110 -45 -105 -4 4 -24 59 -45 121
-20 61 -40 112 -43 113 -40 5 -52 5 -59 0z"/>
<path d="M4755 2913 c-15 -3 -29 -28 -59 -106 -21 -56 -50 -131 -63 -167 -40
-105 -40 -100 1 -100 31 0 38 4 53 38 18 37 18 37 78 36 33 -1 66 -2 72 -3 7
0 19 -17 27 -36 13 -31 19 -35 50 -35 20 0 36 3 36 6 0 7 -51 143 -102 273
-34 85 -49 101 -93 94z m50 -183 l14 -40 -46 0 c-32 0 -44 4 -40 13 45 112 42
111 72 27z"/>
<path d="M4227 2505 c-117 -40 -179 -134 -172 -259 11 -207 259 -306 427 -171
l38 30 -35 34 -34 35 -23 -21 c-107 -101 -278 -32 -278 112 0 64 28 110 85
142 52 29 113 24 176 -16 l46 -29 33 31 33 31 -29 24 c-72 60 -187 85 -267 57z"/>
<path d="M3407 2502 c-3 -6 -2 -42 2 -79 0 -7 13 -10 29 -9 52 6 52 8 52 -198
l0 -192 48 1 47 1 0 189 c0 208 1 210 59 199 25 -4 26 -3 26 44 l0 49 -130 1
c-71 0 -131 -3 -133 -6z"/>
<path d="M3730 2266 l0 -242 128 0 c76 0 130 5 133 11 6 8 5 38 0 77 -1 4 -38
8 -83 10 l-83 3 0 45 c-1 71 -2 70 90 70 l83 0 -2 43 -2 42 -84 5 -84 5 -1 38
c-1 41 -5 39 85 42 91 4 87 1 84 43 -1 20 -2 40 -3 43 -1 4 -59 7 -131 7
l-130 0 0 -242z"/>
<path d="M4598 2498 c-2 -7 -4 -116 -4 -243 l1 -230 45 0 45 0 5 105 5 105 75
0 75 0 2 -75 c3 -152 -2 -137 42 -136 22 1 43 4 46 8 6 6 9 288 6 445 -1 32
-2 32 -46 31 -50 -1 -47 7 -47 -105 1 -46 -4 -73 -11 -76 -7 -2 -41 -3 -77 -2
l-65 1 -5 90 -5 89 -41 3 c-27 2 -43 -1 -46 -10z"/>
</g>
</svg>
